<svg xmlns="http://www.w3.org/2000/svg" width="16" height="16" viewBox="0 0 16 16">
  <g id="Сгруппировать_13" data-name="Сгруппировать 13" transform="translate(-967 243)">
    <rect id="Прямоугольник_2021" data-name="Прямоугольник 2021" width="16" height="16" transform="translate(967 -243)" fill="#fff"/>
    <g id="seo-social-web-network-internet_262_icon-icons.com_61518" transform="translate(970 -242)">
      <path id="Контур_26" data-name="Контур 26" d="M13.982,19.65v7.43a.634.634,0,0,1-.631.631h-4.9a.634.634,0,0,1-.631-.631V19.65Zm-1.6.824v6.391h.366V20.474Zm-1.659,0v6.391h.366V20.474Zm-1.659,0v6.391h.366V20.474Zm.407-2.544V17.4a.6.6,0,0,1,.6-.6h1.669a.6.6,0,0,1,.6.6v.529h1.842a.634.634,0,0,1,.631.631V19H7v-.448a.634.634,0,0,1,.631-.631H9.473Zm.6-.723a.182.182,0,0,0-.183.183v.529h2.046V17.39a.182.182,0,0,0-.183-.183Z" transform="translate(-6.261 -15.033)"/>
      <rect id="_x3C_Slice_x3E__100_" width="10" height="14" transform="translate(0 0)" fill="none"/>
    </g>
  </g>
</svg>
