<svg xmlns="http://www.w3.org/2000/svg" width="16" height="16" viewBox="0 0 16 16">
  <g id="Сгруппировать_9" data-name="Сгруппировать 9" transform="translate(-860 400)">
    <rect id="Прямоугольник_2020" data-name="Прямоугольник 2020" width="16" height="16" transform="translate(860 -400)" fill="#fff"/>
    <g id="_353430-checkbox-edit-pen-pencil_107516" data-name="353430-checkbox-edit-pen-pencil_107516" transform="translate(861.492 -398.238)">
      <path id="Контур_22" data-name="Контур 22" d="M47.576,9.943,46.41,8.778a.618.618,0,0,0-.874,0l-.933.93,2.04,2.037.933-.93A.616.616,0,0,0,47.576,9.943Z" transform="translate(-34.717 -8.597)"/>
      <path id="Контур_23" data-name="Контур 23" d="M21.922,20l2.04,2.037,5.62-5.61-2.04-2.037Z" transform="translate(-18.093 -12.843)"/>
      <path id="Контур_24" data-name="Контур 24" d="M19.078,37.028,18.642,39.5l2.476-.434Z" transform="translate(-15.689 -29.435)"/>
      <path id="Контур_25" data-name="Контур 25" d="M16.615,25.625H8.922V17.932h5.429L15.689,16.6H8.45a.866.866,0,0,0-.864.864V26.1a.866.866,0,0,0,.864.864h8.637a.866.866,0,0,0,.864-.864V19.922l-1.335,1.333Z" transform="translate(-7.586 -14.46)"/>
    </g>
  </g>
</svg>
