<svg xmlns="http://www.w3.org/2000/svg" width="25.774" height="25.774" viewBox="0 0 25.774 25.774">
  <g id="magnifier-1_icon-icons.com_56924" transform="translate(-1 -1)">
    <g id="Сгруппировать_1" data-name="Сгруппировать 1" transform="translate(1 1)">
      <path id="Контур_2" data-name="Контур 2" d="M305.566,302.156l-5.913-5.913a11.381,11.381,0,0,1-3.417,3.417l5.913,5.913a2.416,2.416,0,0,0,3.417-3.417Z" transform="translate(-280.5 -280.507)"/>
      <path id="Контур_3" data-name="Контур 3" d="M19.332,9.665A9.665,9.665,0,1,0,9.666,19.33,9.666,9.666,0,0,0,19.332,9.665ZM9.666,16.914a7.249,7.249,0,1,1,7.249-7.249A7.257,7.257,0,0,1,9.666,16.914Z" transform="translate(-0.001)"/>
      <path id="Контур_4" data-name="Контур 4" d="M75.817,81.454h1.611a4.032,4.032,0,0,1,4.027-4.027V75.816A5.645,5.645,0,0,0,75.817,81.454Z" transform="translate(-71.79 -71.789)"/>
    </g>
  </g>
</svg>
