<svg xmlns="http://www.w3.org/2000/svg" xmlns:xlink="http://www.w3.org/1999/xlink" width="298.038" height="30" viewBox="0 0 298.038 30">
  <defs>
    <linearGradient id="linear-gradient" x2="1" gradientUnits="objectBoundingBox">
      <stop offset="0" stop-color="#5106ff"/>
      <stop offset="1" stop-color="#61cbf2"/>
    </linearGradient>
  </defs>
  <g id="c47e769f-cc11-4ce4-982d-ffd5708f06fe" transform="translate(-1.846)">
    <path id="Контур_1" data-name="Контур 1" d="M14.452,29.683V27.663a7.018,7.018,0,0,1-2.019.317c-3.231,0-4.327-1.327-4.327-4.154V12.721h6.346v-1.99H8.106V5.25l-2.221.317v5.163H1.846v1.99H5.885V23.827C5.885,27.779,7.99,30,12.433,30A7.018,7.018,0,0,0,14.452,29.683Zm20.365-9.49c0-6.375-3.375-9.865-8.481-9.865-5.135,0-8.625,3.49-8.625,9.865,0,6.577,3.894,9.808,9.952,9.808a20.344,20.344,0,0,0,5.654-.923V27.058a20.344,20.344,0,0,1-5.654.923c-4.5,0-7.385-2.135-7.644-7.154h14.8Zm-2.221-1.3H20.077c.4-4.269,2.769-6.548,6.26-6.548C29.6,12.346,32.192,14.625,32.6,18.894ZM45.721,29.6V28.7l-3.029-1.01V0H40.471V29.6Zm20.019-9.4c0-6.375-3.346-9.865-8.481-9.865s-8.6,3.49-8.6,9.865c0,6.577,3.865,9.808,9.923,9.808a20.344,20.344,0,0,0,5.654-.923V27.058a20.344,20.344,0,0,1-5.654.923c-4.471,0-7.385-2.135-7.615-7.154H65.74Zm-2.221-1.3H51c.4-4.269,2.8-6.548,6.26-6.548C60.519,12.346,63.115,14.625,63.519,18.894Zm23.8,4.1a6.331,6.331,0,0,0-3.808-5.712,6,6,0,0,0,3.519-5.452c0-3.865-2.913-6.462-6.837-6.462H70.587l.808,2.308V29.6h8.8C84.808,29.6,87.317,26.683,87.317,22.99Zm-2.6-11.163c0,2.885-1.644,4.529-4.529,4.529H73.587V7.269h6.606C83.077,7.269,84.721,8.971,84.721,11.827ZM85.01,22.99c0,2.971-1.875,4.7-4.817,4.7H73.587V18.26h6.606C83.135,18.26,85.01,19.99,85.01,22.99Zm23.654-2.8c0-6.375-3.462-9.865-8.6-9.865s-8.6,3.49-8.6,9.865c0,6.346,3.462,9.808,8.6,9.808S108.663,26.538,108.663,20.192Zm-2.25,0c0,5.077-2.538,7.788-6.346,7.788s-6.346-2.712-6.346-7.788c0-5.135,2.538-7.846,6.346-7.846S106.413,15.058,106.413,20.192Zm17.683,9.49V27.663a7.018,7.018,0,0,1-2.019.317c-3.231,0-4.327-1.327-4.327-4.154V12.721H124.1v-1.99H117.75V5.25l-2.221.317v5.163H111.49v1.99h4.038V23.827c0,3.952,2.106,6.173,6.548,6.173A7.018,7.018,0,0,0,124.1,29.683Zm37.356-12.2c0-8.077-4.471-12.115-10.99-12.115h-9.635l.808,2.308V29.6h8.827C156.981,29.6,161.452,25.558,161.452,17.481Zm-2.394,0c0,6.779-3.288,10.154-8.6,10.154h-6.577V7.356h6.577C155.769,7.356,159.058,10.7,159.058,17.481ZM182.827,29.6V27.577a5.738,5.738,0,0,1-1.9.4,1.2,1.2,0,0,1-1.327-1.356V17.192c0-4.471-2.712-6.865-7.558-6.865a19.235,19.235,0,0,0-5.135.894V15.75h.894l1.01-3a17.317,17.317,0,0,1,3.231-.4c3.635,0,5.337,1.558,5.337,4.846v1.7h-5.827c-4.471,0-6.577,2.221-6.577,5.163,0,3.433,2.712,5.942,7.875,5.942a13.773,13.773,0,0,0,5.192-1.038A2.972,2.972,0,0,0,180.317,30,9.139,9.139,0,0,0,182.827,29.6Zm-5.452-2.452a12.661,12.661,0,0,1-4.529.894c-3.75,0-5.625-1.558-5.625-3.981,0-1.933,1.269-3.231,4.327-3.231h5.827Zm20.308,2.538V27.663a7.175,7.175,0,0,1-2.019.317c-3.231,0-4.327-1.327-4.327-4.154V12.721h6.346v-1.99h-6.346V5.25l-2.221.317v5.163h-4.038v1.99h4.038V23.827c0,3.952,2.106,6.173,6.548,6.173A7.175,7.175,0,0,0,197.683,29.683ZM218.8,29.6V27.577a5.738,5.738,0,0,1-1.9.4,1.2,1.2,0,0,1-1.327-1.356V17.192c0-4.471-2.712-6.865-7.558-6.865a19.429,19.429,0,0,0-5.135.894V15.75h.894l1.01-3a17.317,17.317,0,0,1,3.231-.4c3.635,0,5.337,1.558,5.337,4.846v1.7h-5.827c-4.471,0-6.577,2.221-6.577,5.163,0,3.433,2.712,5.942,7.875,5.942a13.808,13.808,0,0,0,5.221-1.038A2.872,2.872,0,0,0,216.288,30,9.139,9.139,0,0,0,218.8,29.6Zm-5.452-2.452a12.412,12.412,0,0,1-4.529.894c-3.75,0-5.6-1.558-5.6-3.981,0-1.933,1.24-3.231,4.3-3.231h5.827ZM239.8,22.99a6.331,6.331,0,0,0-3.808-5.712,6,6,0,0,0,3.519-5.452c0-3.865-2.913-6.462-6.808-6.462h-9.635l.808,2.308V29.6H232.7C237.288,29.6,239.8,26.683,239.8,22.99Zm-2.6-11.163c0,2.885-1.644,4.529-4.5,4.529h-6.635V7.269H232.7C235.558,7.269,237.2,8.971,237.2,11.827Zm.288,11.163c0,2.971-1.846,4.7-4.788,4.7h-6.635V18.26H232.7C235.644,18.26,237.49,19.99,237.49,22.99ZM261.808,29.6V27.577a5.738,5.738,0,0,1-1.9.4,1.2,1.2,0,0,1-1.327-1.356V17.192c0-4.471-2.712-6.865-7.558-6.865a19.43,19.43,0,0,0-5.135.894V15.75h.894l1.01-3a17.317,17.317,0,0,1,3.231-.4c3.635,0,5.337,1.558,5.337,4.846v1.7h-5.827c-4.471,0-6.577,2.221-6.577,5.163,0,3.433,2.712,5.942,7.875,5.942a13.808,13.808,0,0,0,5.221-1.038A2.872,2.872,0,0,0,259.3,30,9.139,9.139,0,0,0,261.808,29.6Zm-5.452-2.452a12.413,12.413,0,0,1-4.529.894c-3.75,0-5.6-1.558-5.6-3.981,0-1.933,1.24-3.231,4.3-3.231h5.827Zm22.817-2.683c0-3.462-2.6-5.51-7.038-5.51-3.231,0-4.558-1.356-4.558-3.4,0-1.529,1.212-3.2,5.25-3.2a15.949,15.949,0,0,1,4.1.548l.952,2.856h.894V11.394a19.577,19.577,0,0,0-5.942-1.067c-5.394,0-7.558,2.6-7.558,5.308,0,3.346,2.6,5.452,6.865,5.452,3.4,0,4.731,1.327,4.731,3.462,0,1.731-1.24,3.433-5.538,3.433a18.117,18.117,0,0,1-6.173-1.1V28.9a18.117,18.117,0,0,0,6.173,1.1C276.981,30,279.173,27.462,279.173,24.462Zm20.712-4.269c0-6.375-3.346-9.865-8.481-9.865s-8.6,3.49-8.6,9.865c0,6.577,3.865,9.808,9.923,9.808a20.344,20.344,0,0,0,5.654-.923V27.058a20.344,20.344,0,0,1-5.654.923c-4.471,0-7.385-2.135-7.615-7.154h14.769Zm-2.221-1.3H285.144c.4-4.269,2.8-6.548,6.26-6.548C294.692,12.346,297.26,14.625,297.664,18.894Z" transform="translate(0)" fill="url(#linear-gradient)"/>
  </g>
</svg>
